{"title":"The.Humbling.2014.BRRip.480p.x264.AAC-VYTO [P2PDL]","uid":11702696,"size":377218568,"categoryP":"video","categoryS":"movies","magnet":"?xt=urn:btih:a55c516f82f8e4fc112c983832d4ca451c18d902&amp;dn=The.Humbling.2014.BRRip.480p.x264.AAC-VYTO+%5BP2PDL%5D&amp;tr=udp%3A%2F%2Ftracker.openbittorrent.com%3A80&amp;tr=udp%3A%2F%2Fopen.demonii.com%3A1337&amp;tr=udp%3A%2F%2Ftracker.coppersurfer.tk%3A6969&amp;tr=udp%3A%2F%2Fexodus.desync.com%3A6969","seeders":0,"leechers":4,"uploader":"ValidusVyto","files":6,"time":1423983014,"description":"The.Humbling.2014.BRRip.480p.x264.AAC-VYTO\n\n\nGenre: Comedy | Drama\nIMDb: http://www.imdb.com/title/tt1568343/\n\nFormat                      : MPEG-4\nFile size                   : 352 MiB\nDuration                    : 1h 46mn\nOverall bit rate            : 460 Kbps\n\nVideo\nFormat                      : AVC\nDuration                    : 1h 46mn\nBit rate                    : 425 Kbps\nWidth                       : 720 pixels\nHeight                      : 304 pixels\nDisplay aspect ratio        : 2.35:1\nFrame rate mode             : Constant\nFrame rate                  : 23.976 fps\nBit depth                   : 8 bits\nStream size                 : 325 MiB (92%)\nWriting library             : x264 core 144\n\nAudio\nFormat                      : AAC\nBit rate mode               : Variable\nBit rate                    : 31.8 Kbps\nChannel(s)                  : 2 channels\nChannel positions           : Front: L R\nSampling rate               : 48.0 KHz\nStream size                 : 24.3 MiB (7%)\nLanguage                    : English\n\nSubtitle                    : Yes(English)\nSource                      : 720p.BluRay.x264-ROVERS\n &lt;a href=&quot;\nhttp://someimage.com/yv7r9l3&quot; rel=&quot;nofollow&quot; target=&quot;_NEW&quot;&gt;\nhttp://someimage.com/yv7r9l3&lt;/a&gt; &lt;a href=&quot;\nhttp://someimage.com/uEFFy8G&quot; rel=&quot;nofollow&quot; target=&quot;_NEW&quot;&gt;\nhttp://someimage.com/uEFFy8G&lt;/a&gt; &lt;a href=&quot;\nhttp://someimage.com/dJ62HZN&quot; rel=&quot;nofollow&quot; target=&quot;_NEW&quot;&gt;\nhttp://someimage.com/dJ62HZN&lt;/a&gt; &lt;a href=&quot;\nhttp://someimage.com/L1m2TwF&quot; rel=&quot;nofollow&quot; target=&quot;_NEW&quot;&gt;\nhttp://someimage.com/L1m2TwF&lt;/a&gt; &lt;a href=&quot;\nhttp://someimage.com/iWyhNy7&quot; rel=&quot;nofollow&quot; target=&quot;_NEW&quot;&gt;\nhttp://someimage.com/iWyhNy7&lt;/a&gt; &lt;a href=&quot;\nhttp://someimage.com/QtA1cLb&quot; rel=&quot;nofollow&quot; target=&quot;_NEW&quot;&gt;\nhttp://someimage.com/QtA1cLb&lt;/a&gt; &lt;a href=&quot;\nhttp://someimage.com/1PlqDVf&quot; rel=&quot;nofollow&quot; target=&quot;_NEW&quot;&gt;\nhttp://someimage.com/1PlqDVf&lt;/a&gt; &lt;a href=&quot;\nhttp://someimage.com/icMf6pq&quot; rel=&quot;nofollow&quot; target=&quot;_NEW&quot;&gt;\nhttp://someimage.com/icMf6pq&lt;/a&gt; &lt;a href=&quot;\nhttp://someimage.com/O7HIQwX&quot; rel=&quot;nofollow&quot; target=&quot;_NEW&quot;&gt;\nhttp://someimage.com/O7HIQwX&lt;/a&gt; &lt;a href=&quot;\nhttp://someimage.com/K6AYq6v&quot; rel=&quot;nofollow&quot; target=&quot;_NEW&quot;&gt;\nhttp://someimage.com/K6AYq6v&lt;/a&gt;\n\n----------------------------------------------------------------------------------------------------\n\n\nEncoder Notes: Looking For Early Access To Anything You Can Provide DVDScr, R5, DVDR, BluRay, Direct\nAudio, Music Releases and Seedboxes. If You Got anything to offer please contact us.\n\nWe require dedicated servers, so as to do more and fast releases of movies.\nSupport us by sending us LC - LezHMTo2cYaiztCCcWxB4cNFVNVpWW3GSx","torrent":{"xt":"urn:btih:a55c516f82f8e4fc112c983832d4ca451c18d902","amp;dn":"The.Humbling.2014.BRRip.480p.x264.AAC-VYTO+%5BP2PDL%5D","amp;tr":["udp%3A%2F%2Ftracker.openbittorrent.com%3A80","udp%3A%2F%2Fopen.demonii.com%3A1337","udp%3A%2F%2Ftracker.coppersurfer.tk%3A6969","udp%3A%2F%2Fexodus.desync.com%3A6969"],"infoHash":"a55c516f82f8e4fc112c983832d4ca451c18d902","infoHashBuffer":{"type":"Buffer","data":[165,92,81,111,130,248,228,252,17,44,152,56,50,212,202,69,28,24,217,2]},"announce":[],"urlList":[]}}